<?xml version="1.0" encoding="UTF-8" standalone="no"?>
<!-- Created with Inkscape (http://www.inkscape.org/) -->

<svg
   xmlns:dc="http://purl.org/dc/elements/1.1/"
   xmlns:cc="http://creativecommons.org/ns#"
   xmlns:rdf="http://www.w3.org/1999/02/22-rdf-syntax-ns#"
   xmlns:svg="http://www.w3.org/2000/svg"
   xmlns="http://www.w3.org/2000/svg"
   xmlns:sodipodi="http://sodipodi.sourceforge.net/DTD/sodipodi-0.dtd"
   xmlns:inkscape="http://www.inkscape.org/namespaces/inkscape"
   id="svg2"
   version="1.1"
   inkscape:version="0.48.2 r9819"
   width="512.00001"
   height="146"
   xml:space="preserve"
   sodipodi:docname="initial-graph.svg"><metadata
     id="metadata8"><rdf:RDF><cc:Work
         rdf:about=""><dc:format>image/svg+xml</dc:format><dc:type
           rdf:resource="http://purl.org/dc/dcmitype/StillImage" /><dc:title></dc:title></cc:Work></rdf:RDF></metadata><defs
     id="defs6" /><sodipodi:namedview
     pagecolor="#ffffff"
     bordercolor="#666666"
     borderopacity="1"
     objecttolerance="10"
     gridtolerance="10"
     guidetolerance="10"
     inkscape:pageopacity="0"
     inkscape:pageshadow="2"
     inkscape:window-width="1228"
     inkscape:window-height="756"
     id="namedview4"
     showgrid="false"
     inkscape:zoom="1.7832677"
     inkscape:cx="230.78329"
     inkscape:cy="73.413069"
     inkscape:window-x="0"
     inkscape:window-y="0"
     inkscape:window-maximized="1"
     inkscape:current-layer="g10" /><g
     id="g10"
     inkscape:groupmode="layer"
     inkscape:label="exemplo-bcr-g"
     transform="matrix(1.25,0,0,-1.25,0,146)"><g
       transform="matrix(1,0,0,-1,0,116.8)"
       id="g208"><path
         inkscape:connector-curvature="0"
         id="path210"
         style="fill:none;stroke:#000000;stroke-width:0.44363999;stroke-linecap:butt;stroke-linejoin:miter;stroke-miterlimit:4;stroke-opacity:1;stroke-dasharray:none"
         d="M 44.809,53.68 L 62.555,89.172" /></g><g
       transform="matrix(-0.5,1,1,0.5,0,116.8)"
       id="g212"><path
         inkscape:connector-curvature="0"
         id="path214"
         style="fill:#000000;fill-opacity:1;fill-rule:evenodd;stroke:#000000;stroke-width:0.39680299;stroke-linecap:butt;stroke-linejoin:miter;stroke-miterlimit:4;stroke-opacity:1;stroke-dasharray:none"
         d="M -92.391,14.375 L -90.803,12.786 L -96.359,14.375 L -90.805,15.961 L -92.391,14.375 z" /></g><g
       transform="matrix(1,0,0,-1,0,116.8)"
       id="g216"><path
         inkscape:connector-curvature="0"
         id="path218"
         style="fill:none;stroke:#000000;stroke-width:0.44363999;stroke-linecap:butt;stroke-linejoin:miter;stroke-miterlimit:4;stroke-opacity:1;stroke-dasharray:none"
         d="M 106.918,84.734 L 124.664,53.68" /></g><g
       transform="matrix(-0.571429,-1,-1,0.571429,0,116.8)"
       id="g220"><path
         inkscape:connector-curvature="0"
         id="path222"
         style="fill:#000000;fill-opacity:1;fill-rule:evenodd;stroke:#000000;stroke-width:0.385187;stroke-linecap:butt;stroke-linejoin:miter;stroke-miterlimit:4;stroke-opacity:1;stroke-dasharray:none"
         d="M -9.383,-117.099 L -7.841,-118.64 L -13.235,-117.101 L -7.842,-115.558 L -9.383,-117.099 z" /></g><g
       transform="matrix(1,0,0,-1,0,116.8)"
       id="g224"><path
         inkscape:connector-curvature="0"
         id="path226"
         style="fill:none;stroke:#000000;stroke-width:0.44363999;stroke-linecap:butt;stroke-linejoin:miter;stroke-miterlimit:4;stroke-opacity:1;stroke-dasharray:none"
         d="M 44.809,53.68 L 62.555,22.625" /></g><g
       transform="matrix(-0.571429,-1,-1,0.571429,0,116.8)"
       id="g228"><path
         inkscape:connector-curvature="0"
         id="path230"
         style="fill:#000000;fill-opacity:1;fill-rule:evenodd;stroke:#000000;stroke-width:0.385187;stroke-linecap:butt;stroke-linejoin:miter;stroke-miterlimit:4;stroke-opacity:1;stroke-dasharray:none"
         d="M -6.038,-56.901 L -4.497,-58.442 L -9.891,-56.903 L -4.497,-55.36 L -6.038,-56.901 z" /></g><path
       inkscape:connector-curvature="0"
       id="path232"
       style="fill:#000000;fill-opacity:1;fill-rule:nonzero;stroke:none"
       d="M 20.262,59.05 L 17.199,65.738 L 17.199,60.425 C 17.199,59.933 17.25,59.632 17.355,59.519 C 17.5,59.351 17.73,59.269 18.043,59.269 L 18.324,59.269 L 18.324,59.05 L 15.559,59.05 L 15.559,59.269 L 15.84,59.269 C 16.172,59.269 16.41,59.366 16.559,59.566 C 16.641,59.691 16.684,59.976 16.684,60.425 L 16.684,65.613 C 16.684,65.964 16.641,66.222 16.559,66.378 C 16.504,66.491 16.406,66.585 16.262,66.659 C 16.113,66.741 15.879,66.784 15.559,66.784 L 15.559,67.003 L 17.809,67.003 L 20.684,60.784 L 23.527,67.003 L 25.777,67.003 L 25.777,66.784 L 25.496,66.784 C 25.16,66.784 24.922,66.679 24.777,66.472 C 24.691,66.347 24.652,66.058 24.652,65.613 L 24.652,60.425 C 24.652,59.933 24.703,59.632 24.809,59.519 C 24.953,59.351 25.184,59.269 25.496,59.269 L 25.777,59.269 L 25.777,59.05 L 22.402,59.05 L 22.402,59.269 L 22.684,59.269 C 23.016,59.269 23.254,59.366 23.402,59.566 C 23.484,59.691 23.527,59.976 23.527,60.425 L 23.527,65.738 L 20.465,59.05 L 20.262,59.05 z" /><path
       inkscape:connector-curvature="0"
       id="path234"
       style="fill:#000000;fill-opacity:1;fill-rule:nonzero;stroke:none"
       d="M 26.645,61.347 C 26.645,61.866 26.723,62.32 26.879,62.706 C 27.043,63.089 27.258,63.378 27.52,63.566 C 27.727,63.71 27.941,63.784 28.16,63.784 C 28.512,63.784 28.832,63.601 29.113,63.238 C 29.465,62.788 29.645,62.179 29.645,61.409 C 29.645,60.878 29.566,60.417 29.41,60.034 C 29.254,59.659 29.055,59.386 28.816,59.222 C 28.574,59.054 28.348,58.972 28.129,58.972 C 27.68,58.972 27.309,59.23 27.02,59.753 C 26.77,60.191 26.645,60.722 26.645,61.347 z M 27.316,61.253 C 27.316,60.616 27.395,60.097 27.551,59.691 C 27.684,59.355 27.879,59.191 28.129,59.191 C 28.254,59.191 28.383,59.241 28.52,59.347 C 28.652,59.46 28.754,59.648 28.816,59.909 C 28.918,60.292 28.973,60.847 28.973,61.566 C 28.973,62.097 28.918,62.534 28.816,62.878 C 28.73,63.148 28.621,63.335 28.488,63.441 C 28.395,63.511 28.285,63.55 28.16,63.55 C 28.004,63.55 27.863,63.48 27.738,63.347 C 27.57,63.159 27.457,62.863 27.395,62.456 C 27.34,62.05 27.316,61.648 27.316,61.253 z" /><path
       inkscape:connector-curvature="0"
       id="path236"
       style="fill:#000000;fill-opacity:1;fill-rule:nonzero;stroke:none"
       d="M 82.391,90.062 L 79.328,96.749 L 79.328,91.437 C 79.328,90.945 79.379,90.644 79.484,90.53 C 79.629,90.363 79.859,90.28 80.172,90.28 L 80.453,90.28 L 80.453,90.062 L 77.688,90.062 L 77.688,90.28 L 77.969,90.28 C 78.301,90.28 78.539,90.378 78.688,90.577 C 78.77,90.702 78.812,90.988 78.812,91.437 L 78.812,96.624 C 78.812,96.976 78.77,97.234 78.688,97.39 C 78.633,97.503 78.535,97.597 78.391,97.671 C 78.242,97.753 78.008,97.796 77.688,97.796 L 77.688,98.015 L 79.938,98.015 L 82.812,91.796 L 85.656,98.015 L 87.906,98.015 L 87.906,97.796 L 87.625,97.796 C 87.289,97.796 87.051,97.691 86.906,97.484 C 86.82,97.359 86.781,97.07 86.781,96.624 L 86.781,91.437 C 86.781,90.945 86.832,90.644 86.938,90.53 C 87.082,90.363 87.312,90.28 87.625,90.28 L 87.906,90.28 L 87.906,90.062 L 84.531,90.062 L 84.531,90.28 L 84.812,90.28 C 85.145,90.28 85.383,90.378 85.531,90.577 C 85.613,90.702 85.656,90.988 85.656,91.437 L 85.656,96.749 L 82.594,90.062 L 82.391,90.062 z" /><path
       inkscape:connector-curvature="0"
       id="path238"
       style="fill:#000000;fill-opacity:1;fill-rule:nonzero;stroke:none"
       d="M 91.727,90.952 L 91.414,90.062 L 88.68,90.062 L 88.68,90.187 C 89.48,90.925 90.043,91.523 90.367,91.984 C 90.699,92.452 90.867,92.878 90.867,93.265 C 90.867,93.554 90.773,93.796 90.586,93.984 C 90.406,94.171 90.195,94.265 89.945,94.265 C 89.715,94.265 89.512,94.195 89.336,94.062 C 89.156,93.937 89.023,93.741 88.93,93.484 L 88.805,93.484 C 88.867,93.898 89.012,94.222 89.242,94.452 C 89.48,94.679 89.777,94.796 90.133,94.796 C 90.508,94.796 90.82,94.671 91.07,94.421 C 91.32,94.179 91.445,93.898 91.445,93.577 C 91.445,93.335 91.391,93.101 91.289,92.874 C 91.121,92.499 90.844,92.109 90.461,91.702 C 89.898,91.077 89.543,90.702 89.398,90.577 L 90.617,90.577 C 90.855,90.577 91.023,90.585 91.117,90.609 C 91.219,90.628 91.312,90.663 91.398,90.718 C 91.48,90.769 91.547,90.847 91.602,90.952 L 91.727,90.952 z" /><path
       inkscape:connector-curvature="0"
       id="path240"
       style="fill:#000000;fill-opacity:1;fill-rule:nonzero;stroke:none"
       d="M 82.676,27.952 L 79.613,34.64 L 79.613,29.327 C 79.613,28.835 79.664,28.534 79.77,28.421 C 79.914,28.253 80.145,28.171 80.457,28.171 L 80.738,28.171 L 80.738,27.952 L 77.973,27.952 L 77.973,28.171 L 78.254,28.171 C 78.586,28.171 78.824,28.269 78.973,28.468 C 79.055,28.593 79.098,28.878 79.098,29.327 L 79.098,34.515 C 79.098,34.866 79.055,35.124 78.973,35.28 C 78.918,35.394 78.82,35.488 78.676,35.562 C 78.527,35.644 78.293,35.687 77.973,35.687 L 77.973,35.905 L 80.223,35.905 L 83.098,29.687 L 85.941,35.905 L 88.191,35.905 L 88.191,35.687 L 87.91,35.687 C 87.574,35.687 87.336,35.581 87.191,35.374 C 87.105,35.249 87.066,34.96 87.066,34.515 L 87.066,29.327 C 87.066,28.835 87.117,28.534 87.223,28.421 C 87.367,28.253 87.598,28.171 87.91,28.171 L 88.191,28.171 L 88.191,27.952 L 84.816,27.952 L 84.816,28.171 L 85.098,28.171 C 85.43,28.171 85.668,28.269 85.816,28.468 C 85.898,28.593 85.941,28.878 85.941,29.327 L 85.941,34.64 L 82.879,27.952 L 82.676,27.952 z" /><path
       inkscape:connector-curvature="0"
       id="path242"
       style="fill:#000000;fill-opacity:1;fill-rule:nonzero;stroke:none"
       d="M 89.637,32.14 L 90.762,32.687 L 90.871,32.687 L 90.871,28.765 C 90.871,28.503 90.879,28.343 90.902,28.28 C 90.922,28.218 90.965,28.171 91.027,28.14 C 91.098,28.109 91.238,28.085 91.449,28.077 L 91.449,27.952 L 89.715,27.952 L 89.715,28.077 C 89.934,28.085 90.074,28.109 90.137,28.14 C 90.199,28.171 90.238,28.21 90.262,28.265 C 90.293,28.327 90.309,28.491 90.309,28.765 L 90.309,31.265 C 90.309,31.609 90.297,31.827 90.277,31.921 C 90.254,31.991 90.223,32.046 90.184,32.077 C 90.141,32.116 90.09,32.14 90.027,32.14 C 89.941,32.14 89.828,32.101 89.684,32.03 L 89.637,32.14 z" /><path
       inkscape:connector-curvature="0"
       id="path244"
       style="fill:#000000;fill-opacity:1;fill-rule:nonzero;stroke:none"
       d="M 144.648,59.05 L 141.586,65.738 L 141.586,60.425 C 141.586,59.933 141.637,59.632 141.742,59.519 C 141.887,59.351 142.117,59.269 142.43,59.269 L 142.711,59.269 L 142.711,59.05 L 139.945,59.05 L 139.945,59.269 L 140.227,59.269 C 140.559,59.269 140.797,59.366 140.945,59.566 C 141.027,59.691 141.07,59.976 141.07,60.425 L 141.07,65.613 C 141.07,65.964 141.027,66.222 140.945,66.378 C 140.891,66.491 140.793,66.585 140.648,66.659 C 140.5,66.741 140.266,66.784 139.945,66.784 L 139.945,67.003 L 142.195,67.003 L 145.07,60.784 L 147.914,67.003 L 150.164,67.003 L 150.164,66.784 L 149.883,66.784 C 149.547,66.784 149.309,66.679 149.164,66.472 C 149.078,66.347 149.039,66.058 149.039,65.613 L 149.039,60.425 C 149.039,59.933 149.09,59.632 149.195,59.519 C 149.34,59.351 149.57,59.269 149.883,59.269 L 150.164,59.269 L 150.164,59.05 L 146.789,59.05 L 146.789,59.269 L 147.07,59.269 C 147.402,59.269 147.641,59.366 147.789,59.566 C 147.871,59.691 147.914,59.976 147.914,60.425 L 147.914,65.738 L 144.852,59.05 L 144.648,59.05 z" /><path
       inkscape:connector-curvature="0"
       id="path246"
       style="fill:#000000;fill-opacity:1;fill-rule:nonzero;stroke:none"
       d="M 151.141,62.8 C 151.266,63.113 151.426,63.351 151.625,63.519 C 151.832,63.695 152.086,63.784 152.391,63.784 C 152.766,63.784 153.051,63.663 153.25,63.425 C 153.395,63.238 153.469,63.042 153.469,62.847 C 153.469,62.503 153.254,62.152 152.828,61.8 C 153.117,61.683 153.336,61.523 153.484,61.316 C 153.629,61.105 153.703,60.863 153.703,60.581 C 153.703,60.183 153.57,59.839 153.312,59.55 C 152.977,59.163 152.5,58.972 151.875,58.972 C 151.562,58.972 151.348,59.011 151.234,59.081 C 151.117,59.163 151.062,59.245 151.062,59.331 C 151.062,59.402 151.086,59.46 151.141,59.503 C 151.191,59.554 151.258,59.581 151.344,59.581 C 151.395,59.581 151.453,59.57 151.516,59.55 C 151.555,59.538 151.645,59.495 151.781,59.425 C 151.914,59.363 152.008,59.32 152.062,59.3 C 152.145,59.277 152.234,59.269 152.328,59.269 C 152.555,59.269 152.754,59.355 152.922,59.534 C 153.098,59.71 153.188,59.925 153.188,60.175 C 153.188,60.351 153.148,60.527 153.078,60.706 C 153.016,60.831 152.945,60.925 152.875,60.988 C 152.781,61.081 152.645,61.163 152.469,61.238 C 152.301,61.308 152.129,61.347 151.953,61.347 L 151.844,61.347 L 151.844,61.456 C 152.02,61.476 152.195,61.538 152.375,61.644 C 152.562,61.757 152.695,61.886 152.781,62.034 C 152.863,62.179 152.906,62.347 152.906,62.534 C 152.906,62.761 152.832,62.948 152.688,63.097 C 152.539,63.241 152.359,63.316 152.141,63.316 C 151.785,63.316 151.488,63.128 151.25,62.753 L 151.141,62.8 z" /><g
       transform="matrix(1,0,0,-1,0,116.8)"
       id="g750" /><path
       inkscape:connector-curvature="0"
       id="path762"
       style="fill:#000000;fill-opacity:1;fill-rule:nonzero;stroke:none"
       d="M 257.102,66.667 L 258.242,66.667 L 260.289,61.167 L 262.352,66.667 L 263.492,66.667 L 261.023,60.105 L 259.555,60.105 L 257.102,66.667 z" /><path
       inkscape:connector-curvature="0"
       id="path764"
       style="fill:#000000;fill-opacity:1;fill-rule:nonzero;stroke:none"
       d="M 266.312,64.761 C 265.957,64.761 265.691,64.581 265.516,64.23 C 265.336,63.874 265.25,63.347 265.25,62.652 C 265.25,61.952 265.336,61.425 265.516,61.073 C 265.691,60.73 265.957,60.558 266.312,60.558 C 266.676,60.558 266.945,60.73 267.125,61.073 C 267.301,61.425 267.391,61.952 267.391,62.652 C 267.391,63.347 267.301,63.874 267.125,64.23 C 266.945,64.581 266.676,64.761 266.312,64.761 z M 266.312,65.308 C 266.883,65.308 267.32,65.077 267.625,64.62 C 267.926,64.171 268.078,63.515 268.078,62.652 C 268.078,61.796 267.926,61.14 267.625,60.683 C 267.32,60.234 266.883,60.011 266.312,60.011 C 265.75,60.011 265.316,60.234 265.016,60.683 C 264.711,61.14 264.562,61.796 264.562,62.652 C 264.562,63.515 264.711,64.171 265.016,64.62 C 265.316,65.077 265.75,65.308 266.312,65.308 z" /><g
       transform="matrix(1,0,0,-1,0,116.8)"
       id="g766"><path
         inkscape:connector-curvature="0"
         id="path768"
         style="fill:none;stroke:#000000;stroke-width:0.88727897;stroke-linecap:butt;stroke-linejoin:round;stroke-miterlimit:4;stroke-opacity:1;stroke-dasharray:none"
         d="M 270.707,53.348 C 270.707,57.809 267.09,61.43 262.625,61.43 C 258.164,61.43 254.547,57.809 254.547,53.348 C 254.547,48.887 258.164,45.266 262.625,45.266 C 267.09,45.266 270.707,48.887 270.707,53.348 z" /></g><path
       inkscape:connector-curvature="0"
       id="path770"
       style="fill:#000000;fill-opacity:1;fill-rule:nonzero;stroke:none"
       d="M 309.453,88.851 L 310.594,88.851 L 312.641,83.351 L 314.703,88.851 L 315.844,88.851 L 313.375,82.288 L 311.906,82.288 L 309.453,88.851 z" /><path
       inkscape:connector-curvature="0"
       id="path772"
       style="fill:#000000;fill-opacity:1;fill-rule:nonzero;stroke:none"
       d="M 317.785,82.866 L 320.191,82.866 L 320.191,82.288 L 316.957,82.288 L 316.957,82.866 C 317.215,83.136 317.57,83.499 318.02,83.96 C 318.477,84.417 318.762,84.714 318.879,84.851 C 319.098,85.089 319.246,85.296 319.332,85.476 C 319.426,85.652 319.473,85.82 319.473,85.976 C 319.473,86.257 319.379,86.48 319.191,86.648 C 319.004,86.812 318.754,86.898 318.441,86.898 C 318.223,86.898 317.992,86.859 317.754,86.788 C 317.512,86.714 317.258,86.601 316.988,86.445 L 316.988,87.148 C 317.27,87.261 317.527,87.343 317.77,87.398 C 318.008,87.46 318.227,87.491 318.426,87.491 C 318.957,87.491 319.379,87.355 319.691,87.085 C 320.004,86.823 320.16,86.468 320.16,86.023 C 320.16,85.812 320.117,85.616 320.035,85.429 C 319.961,85.241 319.82,85.023 319.613,84.773 C 319.559,84.698 319.379,84.507 319.066,84.195 C 318.762,83.882 318.336,83.437 317.785,82.866 z" /><g
       transform="matrix(1,0,0,-1,0,116.8)"
       id="g774"><path
         inkscape:connector-curvature="0"
         id="path776"
         style="fill:none;stroke:#000000;stroke-width:0.88727897;stroke-linecap:butt;stroke-linejoin:round;stroke-miterlimit:4;stroke-opacity:1;stroke-dasharray:none"
         d="M 323.055,31.164 C 323.055,35.629 319.438,39.246 314.977,39.246 C 310.512,39.246 306.895,35.629 306.895,31.164 C 306.895,26.703 310.512,23.086 314.977,23.086 C 319.438,23.086 323.055,26.703 323.055,31.164 z" /></g><path
       inkscape:connector-curvature="0"
       id="path778"
       style="fill:#000000;fill-opacity:1;fill-rule:nonzero;stroke:none"
       d="M 309.453,44.488 L 310.594,44.488 L 312.641,38.988 L 314.703,44.488 L 315.844,44.488 L 313.375,37.925 L 311.906,37.925 L 309.453,44.488 z" /><path
       inkscape:connector-curvature="0"
       id="path780"
       style="fill:#000000;fill-opacity:1;fill-rule:nonzero;stroke:none"
       d="M 317.316,38.503 L 318.441,38.503 L 318.441,42.394 L 317.207,42.159 L 317.207,42.784 L 318.426,43.034 L 319.129,43.034 L 319.129,38.503 L 320.254,38.503 L 320.254,37.925 L 317.316,37.925 L 317.316,38.503 z" /><g
       transform="matrix(1,0,0,-1,0,116.8)"
       id="g782"><path
         inkscape:connector-curvature="0"
         id="path784"
         style="fill:none;stroke:#000000;stroke-width:0.88727897;stroke-linecap:butt;stroke-linejoin:round;stroke-miterlimit:4;stroke-opacity:1;stroke-dasharray:none"
         d="M 323.055,75.531 C 323.055,79.992 319.438,83.609 314.977,83.609 C 310.512,83.609 306.895,79.992 306.895,75.531 C 306.895,71.066 310.512,67.449 314.977,67.449 C 319.438,67.449 323.055,71.066 323.055,75.531 z" /></g><path
       inkscape:connector-curvature="0"
       id="path786"
       style="fill:#000000;fill-opacity:1;fill-rule:nonzero;stroke:none"
       d="M 368.898,65.78 L 370.039,65.78 L 372.086,60.28 L 374.148,65.78 L 375.289,65.78 L 372.82,59.218 L 371.352,59.218 L 368.898,65.78 z" /><path
       inkscape:connector-curvature="0"
       id="path788"
       style="fill:#000000;fill-opacity:1;fill-rule:nonzero;stroke:none"
       d="M 378.734,61.968 C 379.066,61.894 379.32,61.741 379.5,61.515 C 379.688,61.296 379.781,61.023 379.781,60.702 C 379.781,60.202 379.609,59.812 379.266,59.53 C 378.922,59.257 378.426,59.124 377.781,59.124 C 377.57,59.124 377.352,59.148 377.125,59.187 C 376.895,59.226 376.66,59.288 376.422,59.374 L 376.422,60.046 C 376.617,59.929 376.828,59.843 377.047,59.78 C 377.273,59.726 377.516,59.702 377.766,59.702 C 378.203,59.702 378.531,59.784 378.75,59.952 C 378.977,60.128 379.094,60.378 379.094,60.702 C 379.094,61.003 378.988,61.238 378.781,61.405 C 378.57,61.57 378.281,61.655 377.906,61.655 L 377.312,61.655 L 377.312,62.234 L 377.922,62.234 C 378.266,62.234 378.523,62.3 378.703,62.437 C 378.891,62.57 378.984,62.765 378.984,63.015 C 378.984,63.273 378.891,63.472 378.703,63.609 C 378.516,63.753 378.25,63.827 377.906,63.827 C 377.707,63.827 377.5,63.804 377.281,63.765 C 377.07,63.722 376.836,63.659 376.578,63.577 L 376.578,64.202 C 376.836,64.273 377.082,64.327 377.312,64.359 C 377.539,64.398 377.758,64.421 377.969,64.421 C 378.488,64.421 378.898,64.3 379.203,64.062 C 379.516,63.82 379.672,63.499 379.672,63.093 C 379.672,62.812 379.586,62.57 379.422,62.374 C 379.254,62.175 379.023,62.038 378.734,61.968 z" /><g
       transform="matrix(1,0,0,-1,0,116.8)"
       id="g790"><path
         inkscape:connector-curvature="0"
         id="path792"
         style="fill:none;stroke:#000000;stroke-width:0.88727897;stroke-linecap:butt;stroke-linejoin:round;stroke-miterlimit:4;stroke-opacity:1;stroke-dasharray:none"
         d="M 382.504,54.234 C 382.504,58.699 378.887,62.316 374.422,62.316 C 369.961,62.316 366.344,58.699 366.344,54.234 C 366.344,49.773 369.961,46.156 374.422,46.156 C 378.887,46.156 382.504,49.773 382.504,54.234 z" /></g><g
       transform="matrix(1,0,0,-1,0,116.8)"
       id="g794"><path
         inkscape:connector-curvature="0"
         id="path796"
         style="fill:none;stroke:#000000;stroke-width:0.88727897;stroke-linecap:butt;stroke-linejoin:miter;stroke-miterlimit:4;stroke-opacity:1;stroke-dasharray:none"
         d="M 268.797,48.289 C 268.797,48.289 278.613,37.453 285.43,34.078 C 291.871,30.887 306.227,31.652 306.227,31.652" /></g><g
       transform="matrix(-1,0.053135,0.053135,1,0,116.8)"
       id="g798"><path
         inkscape:connector-curvature="0"
         id="path800"
         style="fill:#000000;fill-opacity:1;fill-rule:evenodd;stroke:#000000;stroke-width:0.44301501;stroke-linecap:butt;stroke-linejoin:miter;stroke-miterlimit:4;stroke-opacity:1;stroke-dasharray:none"
         d="M -303.498,-15.335 L -301.725,-17.108 L -307.928,-15.337 L -301.725,-13.566 L -303.498,-15.335 z" /></g><g
       transform="matrix(1,0,0,-1,0,116.8)"
       id="g802"><path
         inkscape:connector-curvature="0"
         id="path804"
         style="fill:none;stroke:#000000;stroke-width:0.88727897;stroke-linecap:butt;stroke-linejoin:miter;stroke-miterlimit:4;stroke-opacity:1;stroke-dasharray:none"
         d="M 268.797,58.934 C 268.797,58.934 278.207,70.727 285.43,73.117 C 293.605,75.82 306.227,76.016 306.227,76.016" /></g><g
       transform="matrix(-1,0.0153988,0.0153988,1,0,116.8)"
       id="g806"><path
         inkscape:connector-curvature="0"
         id="path808"
         style="fill:#000000;fill-opacity:1;fill-rule:evenodd;stroke:#000000;stroke-width:0.44358701;stroke-linecap:butt;stroke-linejoin:miter;stroke-miterlimit:4;stroke-opacity:1;stroke-dasharray:none"
         d="M -303.777,-71.283 L -302,-73.057 L -308.211,-71.281 L -302,-69.51 L -303.777,-71.283 z" /></g><g
       transform="matrix(1,0,0,-1,0,116.8)"
       id="g810"><path
         inkscape:connector-curvature="0"
         id="path812"
         style="fill:none;stroke:#000000;stroke-width:0.88727897;stroke-linecap:butt;stroke-linejoin:miter;stroke-miterlimit:4;stroke-opacity:1;stroke-dasharray:none"
         d="M 323.211,75.32 C 323.211,75.32 334.531,63.652 341.668,60.246 C 348.801,56.836 366.016,54.871 366.016,54.871" /></g><g
       transform="matrix(-1,-0.114094,-0.114094,1,0,116.8)"
       id="g814"><path
         inkscape:connector-curvature="0"
         id="path816"
         style="fill:#000000;fill-opacity:1;fill-rule:evenodd;stroke:#000000;stroke-width:0.44078001;stroke-linecap:butt;stroke-linejoin:miter;stroke-miterlimit:4;stroke-opacity:1;stroke-dasharray:none"
         d="M -351.605,-95.389 L -349.841,-97.153 L -356.011,-95.392 L -349.841,-93.63 L -351.605,-95.389 z" /></g><path
       inkscape:connector-curvature="0"
       id="path818"
       style="fill:#000000;fill-opacity:1;fill-rule:nonzero;stroke:none"
       d="M 245.68,31.714 L 242.617,38.402 L 242.617,33.089 C 242.617,32.597 242.668,32.296 242.773,32.183 C 242.918,32.015 243.148,31.933 243.461,31.933 L 243.742,31.933 L 243.742,31.714 L 240.977,31.714 L 240.977,31.933 L 241.258,31.933 C 241.59,31.933 241.828,32.03 241.977,32.23 C 242.059,32.355 242.102,32.64 242.102,33.089 L 242.102,38.277 C 242.102,38.628 242.059,38.886 241.977,39.042 C 241.922,39.155 241.824,39.249 241.68,39.323 C 241.531,39.405 241.297,39.448 240.977,39.448 L 240.977,39.667 L 243.227,39.667 L 246.102,33.448 L 248.945,39.667 L 251.195,39.667 L 251.195,39.448 L 250.914,39.448 C 250.578,39.448 250.34,39.343 250.195,39.136 C 250.109,39.011 250.07,38.722 250.07,38.277 L 250.07,33.089 C 250.07,32.597 250.121,32.296 250.227,32.183 C 250.371,32.015 250.602,31.933 250.914,31.933 L 251.195,31.933 L 251.195,31.714 L 247.82,31.714 L 247.82,31.933 L 248.102,31.933 C 248.434,31.933 248.672,32.03 248.82,32.23 C 248.902,32.355 248.945,32.64 248.945,33.089 L 248.945,38.402 L 245.883,31.714 L 245.68,31.714 z" /><path
       inkscape:connector-curvature="0"
       id="path820"
       style="fill:#000000;fill-opacity:1;fill-rule:nonzero;stroke:none"
       d="M 252.062,34.011 C 252.062,34.53 252.141,34.984 252.297,35.37 C 252.461,35.753 252.676,36.042 252.938,36.23 C 253.145,36.374 253.359,36.448 253.578,36.448 C 253.93,36.448 254.25,36.265 254.531,35.902 C 254.883,35.452 255.062,34.843 255.062,34.073 C 255.062,33.542 254.984,33.081 254.828,32.698 C 254.672,32.323 254.473,32.05 254.234,31.886 C 253.992,31.718 253.766,31.636 253.547,31.636 C 253.098,31.636 252.727,31.894 252.438,32.417 C 252.188,32.855 252.062,33.386 252.062,34.011 z M 252.734,33.917 C 252.734,33.28 252.812,32.761 252.969,32.355 C 253.102,32.019 253.297,31.855 253.547,31.855 C 253.672,31.855 253.801,31.905 253.938,32.011 C 254.07,32.124 254.172,32.312 254.234,32.573 C 254.336,32.956 254.391,33.511 254.391,34.23 C 254.391,34.761 254.336,35.198 254.234,35.542 C 254.148,35.812 254.039,35.999 253.906,36.105 C 253.812,36.175 253.703,36.214 253.578,36.214 C 253.422,36.214 253.281,36.144 253.156,36.011 C 252.988,35.823 252.875,35.527 252.812,35.12 C 252.758,34.714 252.734,34.312 252.734,33.917 z" /><path
       inkscape:connector-curvature="0"
       id="path822"
       style="fill:#000000;fill-opacity:1;fill-rule:nonzero;stroke:none"
       d="M 306.898,62.769 L 303.836,69.456 L 303.836,64.144 C 303.836,63.652 303.887,63.351 303.992,63.238 C 304.137,63.07 304.367,62.988 304.68,62.988 L 304.961,62.988 L 304.961,62.769 L 302.195,62.769 L 302.195,62.988 L 302.477,62.988 C 302.809,62.988 303.047,63.085 303.195,63.284 C 303.277,63.409 303.32,63.695 303.32,64.144 L 303.32,69.331 C 303.32,69.683 303.277,69.941 303.195,70.097 C 303.141,70.21 303.043,70.304 302.898,70.378 C 302.75,70.46 302.516,70.503 302.195,70.503 L 302.195,70.722 L 304.445,70.722 L 307.32,64.503 L 310.164,70.722 L 312.414,70.722 L 312.414,70.503 L 312.133,70.503 C 311.797,70.503 311.559,70.398 311.414,70.191 C 311.328,70.066 311.289,69.777 311.289,69.331 L 311.289,64.144 C 311.289,63.652 311.34,63.351 311.445,63.238 C 311.59,63.07 311.82,62.988 312.133,62.988 L 312.414,62.988 L 312.414,62.769 L 309.039,62.769 L 309.039,62.988 L 309.32,62.988 C 309.652,62.988 309.891,63.085 310.039,63.284 C 310.121,63.409 310.164,63.695 310.164,64.144 L 310.164,69.456 L 307.102,62.769 L 306.898,62.769 z" /><path
       inkscape:connector-curvature="0"
       id="path824"
       style="fill:#000000;fill-opacity:1;fill-rule:nonzero;stroke:none"
       d="M 316.234,63.659 L 315.922,62.769 L 313.188,62.769 L 313.188,62.894 C 313.988,63.632 314.551,64.23 314.875,64.691 C 315.207,65.159 315.375,65.585 315.375,65.972 C 315.375,66.261 315.281,66.503 315.094,66.691 C 314.914,66.878 314.703,66.972 314.453,66.972 C 314.223,66.972 314.02,66.902 313.844,66.769 C 313.664,66.644 313.531,66.448 313.438,66.191 L 313.312,66.191 C 313.375,66.605 313.52,66.929 313.75,67.159 C 313.988,67.386 314.285,67.503 314.641,67.503 C 315.016,67.503 315.328,67.378 315.578,67.128 C 315.828,66.886 315.953,66.605 315.953,66.284 C 315.953,66.042 315.898,65.808 315.797,65.581 C 315.629,65.206 315.352,64.816 314.969,64.409 C 314.406,63.784 314.051,63.409 313.906,63.284 L 315.125,63.284 C 315.363,63.284 315.531,63.292 315.625,63.316 C 315.727,63.335 315.82,63.37 315.906,63.425 C 315.988,63.476 316.055,63.554 316.109,63.659 L 316.234,63.659 z" /><path
       inkscape:connector-curvature="0"
       id="path826"
       style="fill:#000000;fill-opacity:1;fill-rule:nonzero;stroke:none"
       d="M 306.898,0.659 L 303.836,7.347 L 303.836,2.034 C 303.836,1.542 303.887,1.241 303.992,1.128 C 304.137,0.96 304.367,0.878 304.68,0.878 L 304.961,0.878 L 304.961,0.659 L 302.195,0.659 L 302.195,0.878 L 302.477,0.878 C 302.809,0.878 303.047,0.976 303.195,1.175 C 303.277,1.3 303.32,1.585 303.32,2.034 L 303.32,7.222 C 303.32,7.573 303.277,7.831 303.195,7.988 C 303.141,8.101 303.043,8.195 302.898,8.269 C 302.75,8.351 302.516,8.394 302.195,8.394 L 302.195,8.613 L 304.445,8.613 L 307.32,2.394 L 310.164,8.613 L 312.414,8.613 L 312.414,8.394 L 312.133,8.394 C 311.797,8.394 311.559,8.288 311.414,8.081 C 311.328,7.956 311.289,7.667 311.289,7.222 L 311.289,2.034 C 311.289,1.542 311.34,1.241 311.445,1.128 C 311.59,0.96 311.82,0.878 312.133,0.878 L 312.414,0.878 L 312.414,0.659 L 309.039,0.659 L 309.039,0.878 L 309.32,0.878 C 309.652,0.878 309.891,0.976 310.039,1.175 C 310.121,1.3 310.164,1.585 310.164,2.034 L 310.164,7.347 L 307.102,0.659 L 306.898,0.659 z" /><path
       inkscape:connector-curvature="0"
       id="path828"
       style="fill:#000000;fill-opacity:1;fill-rule:nonzero;stroke:none"
       d="M 313.859,4.847 L 314.984,5.394 L 315.094,5.394 L 315.094,1.472 C 315.094,1.21 315.102,1.05 315.125,0.988 C 315.145,0.925 315.188,0.878 315.25,0.847 C 315.32,0.816 315.461,0.792 315.672,0.784 L 315.672,0.659 L 313.938,0.659 L 313.938,0.784 C 314.156,0.792 314.297,0.816 314.359,0.847 C 314.422,0.878 314.461,0.917 314.484,0.972 C 314.516,1.034 314.531,1.198 314.531,1.472 L 314.531,3.972 C 314.531,4.316 314.52,4.534 314.5,4.628 C 314.477,4.698 314.445,4.753 314.406,4.784 C 314.363,4.823 314.312,4.847 314.25,4.847 C 314.164,4.847 314.051,4.808 313.906,4.738 L 313.859,4.847 z" /><path
       inkscape:connector-curvature="0"
       id="path830"
       style="fill:#000000;fill-opacity:1;fill-rule:nonzero;stroke:none"
       d="M 369.008,31.714 L 365.945,38.402 L 365.945,33.089 C 365.945,32.597 365.996,32.296 366.102,32.183 C 366.246,32.015 366.477,31.933 366.789,31.933 L 367.07,31.933 L 367.07,31.714 L 364.305,31.714 L 364.305,31.933 L 364.586,31.933 C 364.918,31.933 365.156,32.03 365.305,32.23 C 365.387,32.355 365.43,32.64 365.43,33.089 L 365.43,38.277 C 365.43,38.628 365.387,38.886 365.305,39.042 C 365.25,39.155 365.152,39.249 365.008,39.323 C 364.859,39.405 364.625,39.448 364.305,39.448 L 364.305,39.667 L 366.555,39.667 L 369.43,33.448 L 372.273,39.667 L 374.523,39.667 L 374.523,39.448 L 374.242,39.448 C 373.906,39.448 373.668,39.343 373.523,39.136 C 373.438,39.011 373.398,38.722 373.398,38.277 L 373.398,33.089 C 373.398,32.597 373.449,32.296 373.555,32.183 C 373.699,32.015 373.93,31.933 374.242,31.933 L 374.523,31.933 L 374.523,31.714 L 371.148,31.714 L 371.148,31.933 L 371.43,31.933 C 371.762,31.933 372,32.03 372.148,32.23 C 372.23,32.355 372.273,32.64 372.273,33.089 L 372.273,38.402 L 369.211,31.714 L 369.008,31.714 z" /><path
       inkscape:connector-curvature="0"
       id="path832"
       style="fill:#000000;fill-opacity:1;fill-rule:nonzero;stroke:none"
       d="M 375.5,35.464 C 375.625,35.777 375.785,36.015 375.984,36.183 C 376.191,36.359 376.445,36.448 376.75,36.448 C 377.125,36.448 377.41,36.327 377.609,36.089 C 377.754,35.902 377.828,35.706 377.828,35.511 C 377.828,35.167 377.613,34.816 377.188,34.464 C 377.477,34.347 377.695,34.187 377.844,33.98 C 377.988,33.769 378.062,33.527 378.062,33.245 C 378.062,32.847 377.93,32.503 377.672,32.214 C 377.336,31.827 376.859,31.636 376.234,31.636 C 375.922,31.636 375.707,31.675 375.594,31.745 C 375.477,31.827 375.422,31.909 375.422,31.995 C 375.422,32.066 375.445,32.124 375.5,32.167 C 375.551,32.218 375.617,32.245 375.703,32.245 C 375.754,32.245 375.812,32.234 375.875,32.214 C 375.914,32.202 376.004,32.159 376.141,32.089 C 376.273,32.027 376.367,31.984 376.422,31.964 C 376.504,31.941 376.594,31.933 376.688,31.933 C 376.914,31.933 377.113,32.019 377.281,32.198 C 377.457,32.374 377.547,32.589 377.547,32.839 C 377.547,33.015 377.508,33.191 377.438,33.37 C 377.375,33.495 377.305,33.589 377.234,33.652 C 377.141,33.745 377.004,33.827 376.828,33.902 C 376.66,33.972 376.488,34.011 376.312,34.011 L 376.203,34.011 L 376.203,34.12 C 376.379,34.14 376.555,34.202 376.734,34.308 C 376.922,34.421 377.055,34.55 377.141,34.698 C 377.223,34.843 377.266,35.011 377.266,35.198 C 377.266,35.425 377.191,35.613 377.047,35.761 C 376.898,35.905 376.719,35.98 376.5,35.98 C 376.145,35.98 375.848,35.792 375.609,35.417 L 375.5,35.464 z" /><path
       inkscape:connector-curvature="0"
       id="path2804"
       style="fill:#000000;fill-opacity:1;fill-rule:nonzero;stroke:none"
       d="M 10.438,113.57792 L 10.625,111.28192 L 10.438,111.28192 C 10.25,111.85192 10.004,112.28492 9.703,112.57792 C 9.266,112.99192 8.707,113.20292 8.031,113.20292 C 7.102,113.20292 6.398,112.83192 5.922,112.09392 C 5.516,111.47692 5.312,110.74192 5.312,109.89092 C 5.312,109.19192 5.441,108.55492 5.703,107.98492 C 5.973,107.40992 6.328,106.98892 6.766,106.71892 C 7.203,106.45692 7.648,106.32792 8.109,106.32792 C 8.379,106.32792 8.641,106.35992 8.891,106.42192 C 9.141,106.49192 9.379,106.59792 9.609,106.73492 L 9.609,108.82792 C 9.609,109.19192 9.582,109.42992 9.531,109.54692 C 9.477,109.65992 9.391,109.74192 9.266,109.79692 C 9.148,109.85992 8.945,109.89092 8.656,109.89092 L 8.656,110.09392 L 11.469,110.09392 L 11.469,109.89092 L 11.344,109.89092 C 11.062,109.89092 10.867,109.79692 10.766,109.60992 C 10.691,109.48492 10.656,109.22292 10.656,108.82792 L 10.656,106.60992 C 10.25,106.37892 9.844,106.21092 9.438,106.10992 C 9.039,106.00792 8.598,105.95292 8.109,105.95292 C 6.691,105.95292 5.617,106.40692 4.891,107.31292 C 4.348,107.98892 4.078,108.76992 4.078,109.65692 C 4.078,110.28892 4.227,110.90692 4.531,111.49992 C 4.895,112.19592 5.398,112.73492 6.047,113.10992 C 6.578,113.42192 7.207,113.57792 7.938,113.57792 C 8.195,113.57792 8.438,113.55492 8.656,113.51592 C 8.875,113.47292 9.18,113.37492 9.578,113.21892 C 9.773,113.14492 9.91,113.10992 9.984,113.10992 C 10.047,113.10992 10.098,113.14092 10.141,113.20292 C 10.191,113.26592 10.223,113.39092 10.234,113.57792 L 10.438,113.57792 z M 14.762,110.87492 L 20.559,110.87492 L 20.559,110.42192 L 14.762,110.42192 L 14.762,110.87492 z M 14.762,109.10992 L 20.559,109.10992 L 20.559,108.67192 L 14.762,108.67192 L 14.762,109.10992 z" /><text
       xml:space="preserve"
       style="font-size:9.60000038px;font-style:normal;font-variant:normal;font-weight:normal;font-stretch:normal;text-align:center;line-height:125%;letter-spacing:0px;word-spacing:0px;text-anchor:middle;fill:#000000;fill-opacity:1;stroke:none;font-family:Georgia;-inkscape-font-specification:Georgia"
       x="261.54236"
       y="-106.32167"
       id="text7180"
       sodipodi:linespacing="125%"
       transform="scale(1,-1)"><tspan
         sodipodi:role="line"
         id="tspan7182"
         x="261.54236"
         y="-106.32167">initial graph =</tspan></text>
<rect
       style="fill:none;stroke:#000000;stroke-width:0.8872;stroke-linejoin:round;stroke-miterlimit:4;stroke-opacity:1;stroke-dasharray:none;stroke-dashoffset:0"
       id="rect7960"
       width="43.663097"
       height="43.663097"
       x="62.806046"
       y="-115.74258"
       transform="scale(1,-1)"
       rx="10"
       ry="10" /><rect
       transform="scale(1,-1)"
       y="-85.236794"
       x="124.71487"
       height="43.663097"
       width="43.663097"
       id="rect7962"
       style="fill:none;stroke:#000000;stroke-width:0.8872;stroke-linejoin:round;stroke-miterlimit:4;stroke-opacity:1;stroke-dasharray:none;stroke-dashoffset:0"
       rx="10"
       ry="10" /><rect
       style="fill:none;stroke:#000000;stroke-width:0.8872;stroke-linejoin:round;stroke-miterlimit:4;stroke-opacity:1;stroke-dasharray:none;stroke-dashoffset:0"
       id="rect7983"
       width="43.663097"
       height="43.663097"
       x="62.509323"
       y="-53.835537"
       transform="scale(1,-1)"
       rx="10"
       ry="10" /><rect
       transform="scale(1,-1)"
       y="-84.938309"
       x="1.2010109"
       height="43.663097"
       width="43.663097"
       id="rect7985"
       style="fill:none;stroke:#000000;stroke-width:0.8872;stroke-linejoin:round;stroke-miterlimit:4;stroke-opacity:1;stroke-dasharray:none;stroke-dashoffset:0"
       rx="10"
       ry="10" /><rect
       transform="scale(1,-1)"
       y="-115.74258"
       x="302.80606"
       height="43.663097"
       width="43.663097"
       id="rect7988"
       style="fill:none;stroke:#000000;stroke-width:0.2216;stroke-linejoin:round;stroke-miterlimit:4;stroke-opacity:1;stroke-dasharray:none;stroke-dashoffset:0"
       rx="10"
       ry="10" /><rect
       style="fill:none;stroke:#000000;stroke-width:0.2216;stroke-linejoin:round;stroke-miterlimit:4;stroke-opacity:1;stroke-dasharray:none;stroke-dashoffset:0"
       id="rect7990"
       width="43.663097"
       height="43.663097"
       x="364.71487"
       y="-85.236786"
       transform="scale(1,-1)"
       rx="10"
       ry="10" /><rect
       transform="scale(1,-1)"
       y="-53.835541"
       x="302.50934"
       height="43.663097"
       width="43.663097"
       id="rect7992"
       style="fill:none;stroke:#000000;stroke-width:0.2216;stroke-linejoin:round;stroke-miterlimit:4;stroke-opacity:1;stroke-dasharray:none;stroke-dashoffset:0"
       rx="10"
       ry="10" /><rect
       style="fill:none;stroke:#000000;stroke-width:0.2216;stroke-linejoin:round;stroke-miterlimit:4;stroke-opacity:1;stroke-dasharray:none;stroke-dashoffset:0"
       id="rect7994"
       width="43.663097"
       height="43.663097"
       x="241.20102"
       y="-84.938309"
       transform="scale(1,-1)"
       rx="10"
       ry="10" /></g></svg>